ISO-10303-21;
HEADER;
FILE_DESCRIPTION (( 'STEP AP214' ),
    '1' );
FILE_NAME ('U.STEP',
    '2026-08-09T04:01:53',
    ( '' ),
    ( '' ),
    'SwSTEP 2.0',
    'SolidWorks 2024',
    '' );
FILE_SCHEMA (( 'AUTOMOTIVE_DESIGN' ));
ENDSEC;

DATA;
#1 = EDGE_LOOP ( 'NONE', ( #223, #28, #300, #248 ) ) ;
#2 = DIRECTION ( 'NONE',  ( 0.000000000000000000, 0.000000000000000000, 1.000000000000000000 ) ) ;
#3 = VERTEX_POINT ( 'NONE', #161 ) ;
#4 = DIRECTION ( 'NONE',  ( -1.000000000000000000, -0.000000000000000000, -0.000000000000000000 ) ) ;
#5 = ORIENTED_EDGE ( 'NONE', *, *, #57, .F. ) ;
#6 = ORIENTED_EDGE ( 'NONE', *, *, #90, .T. ) ;
#7 = DIRECTION ( 'NONE',  ( 1.000000000000000000, 0.000000000000000000, 0.000000000000000000 ) ) ;
#8 = LINE ( 'NONE', #158, #146 ) ;
#9 = EDGE_CURVE ( 'NONE', #127, #196, #8, .T. ) ;
#10 = CARTESIAN_POINT ( 'NONE',  ( 0.000000000000000000, 0.000000000000000000, 0.000000000000000000 ) ) ;
#11 = EDGE_CURVE ( 'NONE', #124, #256, #82, .T. ) ;
#12 = APPLICATION_CONTEXT ( 'automotive_design' ) ;
#13 = CARTESIAN_POINT ( 'NONE',  ( -899.9999999999998863, 0.000000000000000000, -399.9999999999998863 ) ) ;
#14 = EDGE_LOOP ( 'NONE', ( #49, #33, #24, #297 ) ) ;
#15 = DIRECTION ( 'NONE',  ( 1.387778780781445182E-16, -0.000000000000000000, 1.000000000000000000 ) ) ;
#16 = DIRECTION ( 'NONE',  ( 1.000000000000000000, -0.000000000000000000, -0.000000000000000000 ) ) ;
#17 = EDGE_CURVE ( 'NONE', #204, #296, #185, .T. ) ;
#18 = DIRECTION ( 'NONE',  ( 0.000000000000000000, -0.000000000000000000, -1.000000000000000000 ) ) ;
#19 = UNCERTAINTY_MEASURE_WITH_UNIT (LENGTH_MEASURE( 1.000000000000000082E-05 ), #99, 'distance_accuracy_value', 'NONE');
#20 = CARTESIAN_POINT ( 'NONE',  ( -900.0000000000000000, 0.000000000000000000, 400.0000000000003411 ) ) ;
#21 = LINE ( 'NONE', #144, #306 ) ;
#22 =( NAMED_UNIT ( * ) PLANE_ANGLE_UNIT ( ) SI_UNIT ( $, .RADIAN. ) );
#23 =( NAMED_UNIT ( * ) SI_UNIT ( $, .STERADIAN. ) SOLID_ANGLE_UNIT ( ) );
#24 = ORIENTED_EDGE ( 'NONE', *, *, #212, .F. ) ;
#25 = CARTESIAN_POINT ( 'NONE',  ( -1000.000000000000227, 4000.000000000000000, -499.9999999999998863 ) ) ;
#26 = ORIENTED_EDGE ( 'NONE', *, *, #125, .F. ) ;
#27 = EDGE_CURVE ( 'NONE', #246, #204, #86, .T. ) ;
#28 = ORIENTED_EDGE ( 'NONE', *, *, #182, .F. ) ;
#29 = PLANE ( 'NONE',  #36 ) ;
#30 = ORIENTED_EDGE ( 'NONE', *, *, #57, .T. ) ;
#31 = AXIS2_PLACEMENT_3D ( 'NONE', #126, #2, #7 ) ;
#32 = ORIENTED_EDGE ( 'NONE', *, *, #182, .T. ) ;
#33 = ORIENTED_EDGE ( 'NONE', *, *, #233, .F. ) ;
#34 = ADVANCED_FACE ( 'NONE', ( #207 ), #304, .F. ) ;
#35 = DIRECTION ( 'NONE',  ( 0.000000000000000000, -1.000000000000000000, 0.000000000000000000 ) ) ;
#36 = AXIS2_PLACEMENT_3D ( 'NONE', #25, #155, #218 ) ;
#37 = PLANE ( 'NONE',  #132 ) ;
#38 = CARTESIAN_POINT ( 'NONE',  ( 1000.000000000000000, 4000.000000000000000, 400.0000000000001137 ) ) ;
#39 = VECTOR ( 'NONE', #167, 1000.000000000000000 ) ;
#40 = CARTESIAN_POINT ( 'NONE',  ( -899.9999999999998863, 4000.000000000000000, -399.9999999999998863 ) ) ;
#41 = CARTESIAN_POINT ( 'NONE',  ( -1000.000000000000227, 4000.000000000000000, 400.0000000000001137 ) ) ;
#42 = CARTESIAN_POINT ( 'NONE',  ( 900.0000000000000000, 4000.000000000000000, -400.0000000000001137 ) ) ;
#43 = DIRECTION ( 'NONE',  ( -0.000000000000000000, -1.000000000000000000, -0.000000000000000000 ) ) ;
#44 = FACE_OUTER_BOUND ( 'NONE', #1, .T. ) ;
#45 = AXIS2_PLACEMENT_3D ( 'NONE', #213, #266, #141 ) ;
#46 = PLANE ( 'NONE',  #45 ) ;
#47 = VECTOR ( 'NONE', #60, 1000.000000000000000 ) ;
#48 = CARTESIAN_POINT ( 'NONE',  ( -1000.000000000000227, 0.000000000000000000, -499.9999999999998863 ) ) ;
#49 = ORIENTED_EDGE ( 'NONE', *, *, #260, .T. ) ;
#50 = DIRECTION ( 'NONE',  ( -0.000000000000000000, -1.000000000000000000, -0.000000000000000000 ) ) ;
#51 = ADVANCED_FACE ( 'NONE', ( #139 ), #236, .T. ) ;
#52 = EDGE_LOOP ( 'NONE', ( #30, #180, #108, #152, #59, #154, #201, #235 ) ) ;
#53 = SURFACE_STYLE_USAGE ( .BOTH. , #179 ) ;
#54 = VERTEX_POINT ( 'NONE', #230 ) ;
#55 = ORIENTED_EDGE ( 'NONE', *, *, #239, .F. ) ;
#56 = DIRECTION ( 'NONE',  ( -2.467162276944792422E-16, -0.000000000000000000, -1.000000000000000000 ) ) ;
#57 = EDGE_CURVE ( 'NONE', #71, #246, #205, .T. ) ;
#58 = DIRECTION ( 'NONE',  ( -0.000000000000000000, -1.000000000000000000, -0.000000000000000000 ) ) ;
#59 = ORIENTED_EDGE ( 'NONE', *, *, #11, .T. ) ;
#60 = DIRECTION ( 'NONE',  ( 1.000000000000000000, 0.000000000000000000, 2.220446049250308742E-15 ) ) ;
#61 = DIRECTION ( 'NONE',  ( 1.000000000000000000, -0.000000000000000000, 0.000000000000000000 ) ) ;
#62 = FACE_OUTER_BOUND ( 'NONE', #156, .T. ) ;
#63 = FACE_OUTER_BOUND ( 'NONE', #76, .T. ) ;
#64 = EDGE_CURVE ( 'NONE', #127, #124, #163, .T. ) ;
#65 = EDGE_CURVE ( 'NONE', #3, #75, #208, .T. ) ;
#66 = CARTESIAN_POINT ( 'NONE',  ( 900.0000000000000000, 4000.000000000000000, -400.0000000000001137 ) ) ;
#67 = CARTESIAN_POINT ( 'NONE',  ( 0.000000000000000000, 4000.000000000000000, 0.000000000000000000 ) ) ;
#68 = DIRECTION ( 'NONE',  ( 1.387778780781445182E-16, -0.000000000000000000, -1.000000000000000000 ) ) ;
#69 = AXIS2_PLACEMENT_3D ( 'NONE', #198, #299, #74 ) ;
#70 =( NAMED_UNIT ( * ) SI_UNIT ( $, .STERADIAN. ) SOLID_ANGLE_UNIT ( ) );
#71 = VERTEX_POINT ( 'NONE', #281 ) ;
#72 = ADVANCED_FACE ( 'NONE', ( #187 ), #37, .F. ) ;
#73 = FACE_OUTER_BOUND ( 'NONE', #199, .T. ) ;
#74 = DIRECTION ( 'NONE',  ( -1.000000000000000000, 0.000000000000000000, -0.000000000000000000 ) ) ;
#75 = VERTEX_POINT ( 'NONE', #165 ) ;
#76 = EDGE_LOOP ( 'NONE', ( #6, #175, #272, #254 ) ) ;
#77 = AXIS2_PLACEMENT_3D ( 'NONE', #10, #35, #138 ) ;
#78 = ORIENTED_EDGE ( 'NONE', *, *, #194, .F. ) ;
#79 = EDGE_CURVE ( 'NONE', #196, #54, #109, .T. ) ;
#80 = CARTESIAN_POINT ( 'NONE',  ( -1000.000000000000227, 4000.000000000000000, 400.0000000000001137 ) ) ;
#81 = VECTOR ( 'NONE', #4, 1000.000000000000000 ) ;
#82 = LINE ( 'NONE', #38, #245 ) ;
#83 = CARTESIAN_POINT ( 'NONE',  ( 900.0000000000001137, 4000.000000000000000, 400.0000000000001137 ) ) ;
#84 = ORIENTED_EDGE ( 'NONE', *, *, #27, .F. ) ;
#85 = COLOUR_RGB ( '',0.7921568627450980005, 0.8196078431372548767, 0.9333333333333333481 ) ;
#86 = LINE ( 'NONE', #279, #188 ) ;
#87 = CARTESIAN_POINT ( 'NONE',  ( -899.9999999999998863, 4000.000000000000000, -399.9999999999998863 ) ) ;
#88 = EDGE_CURVE ( 'NONE', #256, #3, #202, .T. ) ;
#89 = CARTESIAN_POINT ( 'NONE',  ( -1000.000000000000227, 4000.000000000000000, 400.0000000000001137 ) ) ;
#90 = EDGE_CURVE ( 'NONE', #98, #303, #308, .T. ) ;
#91 = VECTOR ( 'NONE', #220, 1000.000000000000000 ) ;
#92 = LINE ( 'NONE', #89, #135 ) ;
#93 = LINE ( 'NONE', #241, #170 ) ;
#94 = CARTESIAN_POINT ( 'NONE',  ( -1000.000000000000227, 0.000000000000000000, -499.9999999999998863 ) ) ;
#95 = LINE ( 'NONE', #123, #231 ) ;
#96 = VECTOR ( 'NONE', #16, 1000.000000000000000 ) ;
#97 =( NAMED_UNIT ( * ) PLANE_ANGLE_UNIT ( ) SI_UNIT ( $, .RADIAN. ) );
#98 = VERTEX_POINT ( 'NONE', #262 ) ;
#99 =( LENGTH_UNIT ( ) NAMED_UNIT ( * ) SI_UNIT ( .MILLI., .METRE. ) );
#100 = ORIENTED_EDGE ( 'NONE', *, *, #228, .F. ) ;
#101 =( LENGTH_UNIT ( ) NAMED_UNIT ( * ) SI_UNIT ( .MILLI., .METRE. ) );
#102 = ORIENTED_EDGE ( 'NONE', *, *, #27, .T. ) ;
#103 =( GEOMETRIC_REPRESENTATION_CONTEXT ( 3 ) GLOBAL_UNCERTAINTY_ASSIGNED_CONTEXT ( ( #287 ) ) GLOBAL_UNIT_ASSIGNED_CONTEXT ( ( #101, #22, #23 ) ) REPRESENTATION_CONTEXT ( 'NONE', 'WORKASPACE' ) );
#104 = CARTESIAN_POINT ( 'NONE',  ( 999.9999999999997726, 4000.000000000000000, -499.9999999999998863 ) ) ;
#105 = ORIENTED_EDGE ( 'NONE', *, *, #285, .T. ) ;
#106 = VECTOR ( 'NONE', #253, 1000.000000000000000 ) ;
#107 = EDGE_LOOP ( 'NONE', ( #318, #275, #55, #102 ) ) ;
#108 = ORIENTED_EDGE ( 'NONE', *, *, #112, .T. ) ;
#109 = LINE ( 'NONE', #258, #313 ) ;
#110 = DIRECTION ( 'NONE',  ( 1.387778780781445182E-16, -0.000000000000000000, 1.000000000000000000 ) ) ;
#111 = CARTESIAN_POINT ( 'NONE',  ( 900.0000000000001137, 4000.000000000000000, 400.0000000000001137 ) ) ;
#112 = EDGE_CURVE ( 'NONE', #195, #127, #116, .T. ) ;
#113 = PLANE ( 'NONE',  #257 ) ;
#114 = DIRECTION ( 'NONE',  ( -0.000000000000000000, -1.000000000000000000, -0.000000000000000000 ) ) ;
#115 = AXIS2_PLACEMENT_3D ( 'NONE', #67, #211, #18 ) ;
#116 = LINE ( 'NONE', #42, #164 ) ;
#117 = CARTESIAN_POINT ( 'NONE',  ( -900.0000000000000000, 4000.000000000000000, 400.0000000000003411 ) ) ;
#118 = CARTESIAN_POINT ( 'NONE',  ( 999.9999999999997726, 0.000000000000000000, -499.9999999999998863 ) ) ;
#119 = PRODUCT ( 'U', 'U', '', ( #283 ) ) ;
#120 = DIRECTION ( 'NONE',  ( -0.000000000000000000, -0.000000000000000000, 1.000000000000000000 ) ) ;
#121 = ORIENTED_EDGE ( 'NONE', *, *, #17, .F. ) ;
#122 = ADVANCED_FACE ( 'NONE', ( #63 ), #113, .F. ) ;
#123 = CARTESIAN_POINT ( 'NONE',  ( -1000.000000000000227, 0.000000000000000000, 400.0000000000001137 ) ) ;
#124 = VERTEX_POINT ( 'NONE', #168 ) ;
#125 = EDGE_CURVE ( 'NONE', #296, #196, #93, .T. ) ;
#126 = CARTESIAN_POINT ( 'NONE',  ( 0.000000000000000000, 0.000000000000000000, 0.000000000000000000 ) ) ;
#127 = VERTEX_POINT ( 'NONE', #66 ) ;
#128 = DIRECTION ( 'NONE',  ( 1.000000000000000000, 0.000000000000000000, 2.220446049250308742E-15 ) ) ;
#129 = ORIENTED_EDGE ( 'NONE', *, *, #278, .T. ) ;
#130 = VECTOR ( 'NONE', #50, 1000.000000000000000 ) ;
#131 = VERTEX_POINT ( 'NONE', #94 ) ;
#132 = AXIS2_PLACEMENT_3D ( 'NONE', #80, #61, #136 ) ;
#133 = LINE ( 'NONE', #289, #250 ) ;
#134 = ORIENTED_EDGE ( 'NONE', *, *, #79, .F. ) ;
#135 = VECTOR ( 'NONE', #292, 1000.000000000000000 ) ;
#136 = DIRECTION ( 'NONE',  ( 0.000000000000000000, 0.000000000000000000, -1.000000000000000000 ) ) ;
#137 = AXIS2_PLACEMENT_3D ( 'NONE', #40, #232, #159 ) ;
#138 = DIRECTION ( 'NONE',  ( 0.000000000000000000, -0.000000000000000000, -1.000000000000000000 ) ) ;
#139 = FACE_OUTER_BOUND ( 'NONE', #174, .T. ) ;
#140 = CARTESIAN_POINT ( 'NONE',  ( 1000.000000000000000, 0.000000000000000000, 400.0000000000001137 ) ) ;
#141 = DIRECTION ( 'NONE',  ( -1.000000000000000000, 0.000000000000000000, 1.233581138472396211E-16 ) ) ;
#142 = CARTESIAN_POINT ( 'NONE',  ( -899.9999999999998863, 4000.000000000000000, -399.9999999999998863 ) ) ;
#143 = APPLICATION_CONTEXT ( 'automotive_design' ) ;
#144 = CARTESIAN_POINT ( 'NONE',  ( -899.9999999999998863, 4000.000000000000000, -399.9999999999998863 ) ) ;
#145 = DIRECTION ( 'NONE',  ( 2.220446049250308742E-15, 0.000000000000000000, -1.000000000000000000 ) ) ;
#146 = VECTOR ( 'NONE', #255, 1000.000000000000000 ) ;
#147 = CARTESIAN_POINT ( 'NONE',  ( -1000.000000000000227, 0.000000000000000000, 400.0000000000001137 ) ) ;
#148 = ORIENTED_EDGE ( 'NONE', *, *, #295, .F. ) ;
#149 = EDGE_CURVE ( 'NONE', #195, #296, #259, .T. ) ;
#150 = SURFACE_STYLE_FILL_AREA ( #172 ) ;
#151 = ADVANCED_FACE ( 'NONE', ( #62 ), #46, .F. ) ;
#152 = ORIENTED_EDGE ( 'NONE', *, *, #64, .T. ) ;
#153 = EDGE_LOOP ( 'NONE', ( #105, #84, #5, #269 ) ) ;
#154 = ORIENTED_EDGE ( 'NONE', *, *, #88, .T. ) ;
#155 = DIRECTION ( 'NONE',  ( 0.000000000000000000, 0.000000000000000000, 1.000000000000000000 ) ) ;
#156 = EDGE_LOOP ( 'NONE', ( #221, #227, #273, #247 ) ) ;
#157 = AXIS2_PLACEMENT_3D ( 'NONE', #111, #291, #209 ) ;
#158 = CARTESIAN_POINT ( 'NONE',  ( 900.0000000000000000, 4000.000000000000000, -400.0000000000001137 ) ) ;
#159 = DIRECTION ( 'NONE',  ( -1.387778780781445182E-16, 0.000000000000000000, 1.000000000000000000 ) ) ;
#160 = ADVANCED_FACE ( 'NONE', ( #263 ), #314, .F. ) ;
#161 = CARTESIAN_POINT ( 'NONE',  ( 999.9999999999997726, 4000.000000000000000, -499.9999999999998863 ) ) ;
#162 = PRODUCT_DEFINITION_FORMATION_WITH_SPECIFIED_SOURCE ( 'ไป', '', #119, .NOT_KNOWN. ) ;
#163 = LINE ( 'NONE', #83, #267 ) ;
#164 = VECTOR ( 'NONE', #243, 1000.000000000000000 ) ;
#165 = CARTESIAN_POINT ( 'NONE',  ( -1000.000000000000227, 4000.000000000000000, -499.9999999999998863 ) ) ;
#166 = DIRECTION ( 'NONE',  ( 1.000000000000000000, -0.000000000000000000, -1.233581138472396211E-16 ) ) ;
#167 = DIRECTION ( 'NONE',  ( -2.467162276944792422E-16, -0.000000000000000000, -1.000000000000000000 ) ) ;
#168 = CARTESIAN_POINT ( 'NONE',  ( 900.0000000000001137, 4000.000000000000000, 400.0000000000001137 ) ) ;
#169 = CARTESIAN_POINT ( 'NONE',  ( 999.9999999999997726, 4000.000000000000000, -499.9999999999998863 ) ) ;
#170 = VECTOR ( 'NONE', #166, 1000.000000000000000 ) ;
#171 = LINE ( 'NONE', #140, #96 ) ;
#172 = FILL_AREA_STYLE ('',( #238 ) ) ;
#173 = ADVANCED_FACE ( 'NONE', ( #44 ), #309, .F. ) ;
#174 = EDGE_LOOP ( 'NONE', ( #177, #252, #148, #282, #78, #134, #26, #121 ) ) ;
#175 = ORIENTED_EDGE ( 'NONE', *, *, #278, .F. ) ;
#176 = VECTOR ( 'NONE', #43, 1000.000000000000000 ) ;
#177 = ORIENTED_EDGE ( 'NONE', *, *, #285, .F. ) ;
#178 = VECTOR ( 'NONE', #56, 1000.000000000000000 ) ;
#179 = SURFACE_SIDE_STYLE ('',( #150 ) ) ;
#180 = ORIENTED_EDGE ( 'NONE', *, *, #239, .T. ) ;
#181 = DIRECTION ( 'NONE',  ( 1.000000000000000000, -0.000000000000000000, -0.000000000000000000 ) ) ;
#182 = EDGE_CURVE ( 'NONE', #124, #54, #311, .T. ) ;
#183 = ORIENTED_EDGE ( 'NONE', *, *, #295, .T. ) ;
#184 = ADVANCED_BREP_SHAPE_REPRESENTATION ( 'U', ( #251, #31 ), #214 ) ;
#185 = LINE ( 'NONE', #13, #106 ) ;
#186 = VECTOR ( 'NONE', #114, 1000.000000000000000 ) ;
#187 = FACE_OUTER_BOUND ( 'NONE', #14, .T. ) ;
#188 = VECTOR ( 'NONE', #58, 1000.000000000000000 ) ;
#189 = FACE_OUTER_BOUND ( 'NONE', #52, .T. ) ;
#190 = CARTESIAN_POINT ( 'NONE',  ( -1000.000000000000227, 4000.000000000000000, -499.9999999999998863 ) ) ;
#191 = LINE ( 'NONE', #190, #276 ) ;
#192 = DIRECTION ( 'NONE',  ( -1.000000000000000000, 0.000000000000000000, 2.467162276944792422E-16 ) ) ;
#193 = CARTESIAN_POINT ( 'NONE',  ( 900.0000000000000000, 0.000000000000000000, -400.0000000000001137 ) ) ;
#194 = EDGE_CURVE ( 'NONE', #54, #98, #171, .T. ) ;
#195 = VERTEX_POINT ( 'NONE', #87 ) ;
#196 = VERTEX_POINT ( 'NONE', #193 ) ;
#197 = PRODUCT_DEFINITION_SHAPE ( 'NONE', 'NONE',  #290 ) ;
#198 = CARTESIAN_POINT ( 'NONE',  ( 1000.000000000000000, 4000.000000000000000, 400.0000000000001137 ) ) ;
#199 = EDGE_LOOP ( 'NONE', ( #294, #284, #268, #32 ) ) ;
#200 = CARTESIAN_POINT ( 'NONE',  ( -899.9999999999998863, 0.000000000000000000, -399.9999999999998863 ) ) ;
#201 = ORIENTED_EDGE ( 'NONE', *, *, #65, .T. ) ;
#202 = LINE ( 'NONE', #302, #178 ) ;
#203 = ADVANCED_FACE ( 'NONE', ( #189 ), #286, .F. ) ;
#204 = VERTEX_POINT ( 'NONE', #20 ) ;
#205 = LINE ( 'NONE', #234, #47 ) ;
#206 = APPLICATION_PROTOCOL_DEFINITION ( 'draft international standard', 'automotive_design', 1998, #143 ) ;
#207 = FACE_OUTER_BOUND ( 'NONE', #107, .T. ) ;
#208 = LINE ( 'NONE', #277, #229 ) ;
#209 = DIRECTION ( 'NONE',  ( -1.387778780781445182E-16, 0.000000000000000000, -1.000000000000000000 ) ) ;
#210 = PRODUCT_DEFINITION_CONTEXT ( 'detailed design', #143, 'design' ) ;
#211 = DIRECTION ( 'NONE',  ( 0.000000000000000000, -1.000000000000000000, 0.000000000000000000 ) ) ;
#212 = EDGE_CURVE ( 'NONE', #75, #71, #92, .T. ) ;
#213 = CARTESIAN_POINT ( 'NONE',  ( 900.0000000000000000, 4000.000000000000000, -400.0000000000001137 ) ) ;
#214 =( GEOMETRIC_REPRESENTATION_CONTEXT ( 3 ) GLOBAL_UNCERTAINTY_ASSIGNED_CONTEXT ( ( #19 ) ) GLOBAL_UNIT_ASSIGNED_CONTEXT ( ( #99, #97, #70 ) ) REPRESENTATION_CONTEXT ( 'NONE', 'WORKASPACE' ) );
#215 = DIRECTION ( 'NONE',  ( 2.467162276944792422E-16, 0.000000000000000000, 1.000000000000000000 ) ) ;
#216 = LINE ( 'NONE', #147, #298 ) ;
#217 = CLOSED_SHELL ( 'NONE', ( #160, #34, #151, #173, #261, #122, #270, #72, #203, #51 ) ) ;
#218 = DIRECTION ( 'NONE',  ( 1.000000000000000000, 0.000000000000000000, -0.000000000000000000 ) ) ;
#219 = EDGE_LOOP ( 'NONE', ( #183, #100, #226, #129 ) ) ;
#220 = DIRECTION ( 'NONE',  ( -0.000000000000000000, -1.000000000000000000, -0.000000000000000000 ) ) ;
#221 = ORIENTED_EDGE ( 'NONE', *, *, #125, .T. ) ;
#222 = APPLICATION_PROTOCOL_DEFINITION ( 'draft international standard', 'automotive_design', 1998, #12 ) ;
#223 = ORIENTED_EDGE ( 'NONE', *, *, #79, .T. ) ;
#224 = STYLED_ITEM ( 'NONE', ( #274 ), #251 ) ;
#225 = LINE ( 'NONE', #48, #81 ) ;
#226 = ORIENTED_EDGE ( 'NONE', *, *, #65, .F. ) ;
#227 = ORIENTED_EDGE ( 'NONE', *, *, #9, .F. ) ;
#228 = EDGE_CURVE ( 'NONE', #75, #131, #191, .T. ) ;
#229 = VECTOR ( 'NONE', #307, 1000.000000000000000 ) ;
#230 = CARTESIAN_POINT ( 'NONE',  ( 900.0000000000001137, 0.000000000000000000, 400.0000000000001137 ) ) ;
#231 = VECTOR ( 'NONE', #128, 1000.000000000000000 ) ;
#232 = DIRECTION ( 'NONE',  ( -1.000000000000000000, 0.000000000000000000, -1.387778780781445182E-16 ) ) ;
#233 = EDGE_CURVE ( 'NONE', #71, #305, #133, .T. ) ;
#234 = CARTESIAN_POINT ( 'NONE',  ( -1000.000000000000227, 4000.000000000000000, 400.0000000000001137 ) ) ;
#235 = ORIENTED_EDGE ( 'NONE', *, *, #212, .T. ) ;
#236 = PLANE ( 'NONE',  #77 ) ;
#237 = AXIS2_PLACEMENT_3D ( 'NONE', #41, #145, #244 ) ;
#238 = FILL_AREA_STYLE_COLOUR ( '', #85 ) ;
#239 = EDGE_CURVE ( 'NONE', #246, #195, #21, .T. ) ;
#240 = CARTESIAN_POINT ( 'NONE',  ( 900.0000000000001137, 4000.000000000000000, 400.0000000000001137 ) ) ;
#241 = CARTESIAN_POINT ( 'NONE',  ( 900.0000000000000000, 0.000000000000000000, -400.0000000000001137 ) ) ;
#242 = MECHANICAL_DESIGN_GEOMETRIC_PRESENTATION_REPRESENTATION (  '', ( #224 ), #103 ) ;
#243 = DIRECTION ( 'NONE',  ( 1.000000000000000000, -0.000000000000000000, -1.233581138472396211E-16 ) ) ;
#244 = DIRECTION ( 'NONE',  ( -1.000000000000000000, 0.000000000000000000, -2.220446049250308742E-15 ) ) ;
#245 = VECTOR ( 'NONE', #181, 1000.000000000000000 ) ;
#246 = VERTEX_POINT ( 'NONE', #117 ) ;
#247 = ORIENTED_EDGE ( 'NONE', *, *, #149, .T. ) ;
#248 = ORIENTED_EDGE ( 'NONE', *, *, #9, .T. ) ;
#249 = PLANE ( 'NONE',  #69 ) ;
#250 = VECTOR ( 'NONE', #264, 1000.000000000000000 ) ;
#251 = MANIFOLD_SOLID_BREP ( '\X2\51f853f0\X0\-\X2\62c94f38\X0\1', #217 ) ;
#252 = ORIENTED_EDGE ( 'NONE', *, *, #260, .F. ) ;
#253 = DIRECTION ( 'NONE',  ( 1.387778780781445182E-16, -0.000000000000000000, -1.000000000000000000 ) ) ;
#254 = ORIENTED_EDGE ( 'NONE', *, *, #316, .T. ) ;
#255 = DIRECTION ( 'NONE',  ( -0.000000000000000000, -1.000000000000000000, -0.000000000000000000 ) ) ;
#256 = VERTEX_POINT ( 'NONE', #315 ) ;
#257 = AXIS2_PLACEMENT_3D ( 'NONE', #169, #192, #215 ) ;
#258 = CARTESIAN_POINT ( 'NONE',  ( 900.0000000000001137, 0.000000000000000000, 400.0000000000001137 ) ) ;
#259 = LINE ( 'NONE', #142, #186 ) ;
#260 = EDGE_CURVE ( 'NONE', #131, #305, #216, .T. ) ;
#261 = ADVANCED_FACE ( 'NONE', ( #73 ), #249, .F. ) ;
#262 = CARTESIAN_POINT ( 'NONE',  ( 1000.000000000000000, 0.000000000000000000, 400.0000000000001137 ) ) ;
#263 = FACE_OUTER_BOUND ( 'NONE', #153, .T. ) ;
#264 = DIRECTION ( 'NONE',  ( -0.000000000000000000, -1.000000000000000000, -0.000000000000000000 ) ) ;
#265 = PRESENTATION_LAYER_ASSIGNMENT (  '', '', ( #224 ) ) ;
#266 = DIRECTION ( 'NONE',  ( -1.233581138472396211E-16, 0.000000000000000000, -1.000000000000000000 ) ) ;
#267 = VECTOR ( 'NONE', #110, 1000.000000000000000 ) ;
#268 = ORIENTED_EDGE ( 'NONE', *, *, #11, .F. ) ;
#269 = ORIENTED_EDGE ( 'NONE', *, *, #233, .T. ) ;
#270 = ADVANCED_FACE ( 'NONE', ( #271 ), #29, .F. ) ;
#271 = FACE_OUTER_BOUND ( 'NONE', #219, .T. ) ;
#272 = ORIENTED_EDGE ( 'NONE', *, *, #88, .F. ) ;
#273 = ORIENTED_EDGE ( 'NONE', *, *, #112, .F. ) ;
#274 = PRESENTATION_STYLE_ASSIGNMENT (( #53 ) ) ;
#275 = ORIENTED_EDGE ( 'NONE', *, *, #149, .F. ) ;
#276 = VECTOR ( 'NONE', #288, 1000.000000000000000 ) ;
#277 = CARTESIAN_POINT ( 'NONE',  ( -1000.000000000000227, 4000.000000000000000, -499.9999999999998863 ) ) ;
#278 = EDGE_CURVE ( 'NONE', #3, #303, #293, .T. ) ;
#279 = CARTESIAN_POINT ( 'NONE',  ( -900.0000000000000000, 4000.000000000000000, 400.0000000000003411 ) ) ;
#280 = SHAPE_DEFINITION_REPRESENTATION ( #197, #184 ) ;
#281 = CARTESIAN_POINT ( 'NONE',  ( -1000.000000000000227, 4000.000000000000000, 400.0000000000001137 ) ) ;
#282 = ORIENTED_EDGE ( 'NONE', *, *, #90, .F. ) ;
#283 = PRODUCT_CONTEXT ( 'NONE', #12, 'mechanical' ) ;
#284 = ORIENTED_EDGE ( 'NONE', *, *, #316, .F. ) ;
#285 = EDGE_CURVE ( 'NONE', #305, #204, #95, .T. ) ;
#286 = PLANE ( 'NONE',  #115 ) ;
#287 = UNCERTAINTY_MEASURE_WITH_UNIT (LENGTH_MEASURE( 1.000000000000000082E-05 ), #101, 'distance_accuracy_value', 'NONE');
#288 = DIRECTION ( 'NONE',  ( -0.000000000000000000, -1.000000000000000000, -0.000000000000000000 ) ) ;
#289 = CARTESIAN_POINT ( 'NONE',  ( -1000.000000000000227, 4000.000000000000000, 400.0000000000001137 ) ) ;
#290 = PRODUCT_DEFINITION ( 'ๆ', '', #162, #210 ) ;
#291 = DIRECTION ( 'NONE',  ( 1.000000000000000000, 0.000000000000000000, -1.387778780781445182E-16 ) ) ;
#292 = DIRECTION ( 'NONE',  ( -0.000000000000000000, -0.000000000000000000, 1.000000000000000000 ) ) ;
#293 = LINE ( 'NONE', #104, #130 ) ;
#294 = ORIENTED_EDGE ( 'NONE', *, *, #194, .T. ) ;
#295 = EDGE_CURVE ( 'NONE', #303, #131, #225, .T. ) ;
#296 = VERTEX_POINT ( 'NONE', #200 ) ;
#297 = ORIENTED_EDGE ( 'NONE', *, *, #228, .T. ) ;
#298 = VECTOR ( 'NONE', #120, 1000.000000000000000 ) ;
#299 = DIRECTION ( 'NONE',  ( 0.000000000000000000, 0.000000000000000000, -1.000000000000000000 ) ) ;
#300 = ORIENTED_EDGE ( 'NONE', *, *, #64, .F. ) ;
#301 = CARTESIAN_POINT ( 'NONE',  ( 1000.000000000000000, 4000.000000000000000, 400.0000000000001137 ) ) ;
#302 = CARTESIAN_POINT ( 'NONE',  ( 999.9999999999997726, 4000.000000000000000, -499.9999999999998863 ) ) ;
#303 = VERTEX_POINT ( 'NONE', #118 ) ;
#304 = PLANE ( 'NONE',  #137 ) ;
#305 = VERTEX_POINT ( 'NONE', #317 ) ;
#306 = VECTOR ( 'NONE', #68, 1000.000000000000000 ) ;
#307 = DIRECTION ( 'NONE',  ( -1.000000000000000000, -0.000000000000000000, -0.000000000000000000 ) ) ;
#308 = LINE ( 'NONE', #312, #39 ) ;
#309 = PLANE ( 'NONE',  #157 ) ;
#310 = PRODUCT_RELATED_PRODUCT_CATEGORY ( 'part', '', ( #119 ) ) ;
#311 = LINE ( 'NONE', #240, #176 ) ;
#312 = CARTESIAN_POINT ( 'NONE',  ( 999.9999999999997726, 0.000000000000000000, -499.9999999999998863 ) ) ;
#313 = VECTOR ( 'NONE', #15, 1000.000000000000000 ) ;
#314 = PLANE ( 'NONE',  #237 ) ;
#315 = CARTESIAN_POINT ( 'NONE',  ( 1000.000000000000000, 4000.000000000000000, 400.0000000000001137 ) ) ;
#316 = EDGE_CURVE ( 'NONE', #256, #98, #319, .T. ) ;
#317 = CARTESIAN_POINT ( 'NONE',  ( -1000.000000000000227, 0.000000000000000000, 400.0000000000001137 ) ) ;
#318 = ORIENTED_EDGE ( 'NONE', *, *, #17, .T. ) ;
#319 = LINE ( 'NONE', #301, #91 ) ;
ENDSEC;
END-ISO-10303-21;
